HIERARCHY
ROOT Hips
{
	OFFSET -0.001795 -0.223333 0.028219
	CHANNELS 6 Xposition Yposition Zposition Zrotation Yrotation Xrotation 
	JOINT LeftUpLeg
	{
		OFFSET 0.069520 -0.091406 -0.006815
		CHANNELS 3 Zrotation Yrotation Xrotation
		JOINT LeftLeg
		{
			OFFSET 0.034277 -0.375199 -0.004496
			CHANNELS 3 Zrotation Yrotation Xrotation
			JOINT LeftFoot
			{
				OFFSET -0.013596 -0.397961 -0.043693
				CHANNELS 3 Zrotation Yrotation Xrotation
				JOINT LeftToe
				{
					OFFSET 0.026358 -0.055791 0.119288
					CHANNELS 3 Zrotation Yrotation Xrotation
					End Site
					{
						OFFSET 0.000000 0.000000 0.000000
					}
				}
			}
		}
	}
	JOINT RightUpLeg
	{
		OFFSET -0.067670 -0.090522 -0.004320
		CHANNELS 3 Zrotation Yrotation Xrotation
		JOINT RightLeg
		{
			OFFSET -0.038290 -0.382569 -0.008850
			CHANNELS 3 Zrotation Yrotation Xrotation
			JOINT RightFoot
			{
				OFFSET 0.015774 -0.398415 -0.042312
				CHANNELS 3 Zrotation Yrotation Xrotation
				JOINT RightToe
				{
					OFFSET -0.025372 -0.048144 0.123348
					CHANNELS 3 Zrotation Yrotation Xrotation
					End Site
					{
						OFFSET 0.000000 0.000000 0.000000
					}
				}
			}
		}
	}
	JOINT Spine
	{
		OFFSET -0.002533 0.108963 -0.026696
		CHANNELS 3 Zrotation Yrotation Xrotation
		JOINT Spine1
		{
			OFFSET 0.005487 0.135180 0.001092
			CHANNELS 3 Zrotation Yrotation Xrotation
			JOINT Spine2
			{
				OFFSET 0.001457 0.052922 0.025425
				CHANNELS 3 Zrotation Yrotation Xrotation
				JOINT Neck
				{
					OFFSET -0.002778 0.213870 -0.042857
					CHANNELS 3 Zrotation Yrotation Xrotation
					JOINT Head
					{
						OFFSET 0.005152 0.064970 0.051349
						CHANNELS 3 Zrotation Yrotation Xrotation
						End Site
						{
							OFFSET 0.000000 0.000000 0.000000
						}
					}
				}
				JOINT LeftShoulder
				{
					OFFSET 0.078845 0.121749 -0.034090
					CHANNELS 3 Zrotation Yrotation Xrotation
					JOINT LeftArm
					{
						OFFSET 0.090977 0.030469 -0.008868
						CHANNELS 3 Zrotation Yrotation Xrotation
						JOINT LeftForeArm
						{
							OFFSET 0.259612 -0.012772 -0.027456
							CHANNELS 3 Zrotation Yrotation Xrotation
							JOINT LeftHand
							{
								OFFSET 0.249234 0.008986 -0.001171
								CHANNELS 3 Zrotation Yrotation Xrotation
								End Site
								{
									OFFSET 0.000000 0.000000 0.000000
								}
							}
						}
					}
				}
				JOINT RightShoulder
				{
					OFFSET -0.081759 0.118833 -0.038615
					CHANNELS 3 Zrotation Yrotation Xrotation
					JOINT RightArm
					{
						OFFSET -0.096012 0.032551 -0.009143
						CHANNELS 3 Zrotation Yrotation Xrotation
						JOINT RightForeArm
						{
							OFFSET -0.253742 -0.013329 -0.021401
							CHANNELS 3 Zrotation Yrotation Xrotation
							JOINT RightHand
							{
								OFFSET -0.255298 0.007772 -0.005559
								CHANNELS 3 Zrotation Yrotation Xrotation
								End Site
								{
									OFFSET 0.000000 0.000000 0.000000
								}
							}
						}
					}
				}
			}
		}
	}
}
MOTION
Frames: 7
Frame Time: 0.050000
0.320472 0.944829 2.090652 -179.168042 -15.491576 175.265177 7.399918 13.374810 -5.843649 23.967032 33.898960 43.427155 -7.023764 2.468846 18.593580 0.000000 0.000000 0.000000 2.758607 3.275834 -0.481379 9.215907 11.388805 -0.115859 -64.539855 34.813106 27.642034 0.000000 0.000000 0.000000 0.106594 0.267883 7.833962 27.485822 28.419510 18.910102 -18.852000 -37.242444 11.373018 80.711053 22.874476 54.548692 0.000000 0.000000 0.000000 -23.323851 4.535495 79.663742 24.372137 -59.935233 -26.592428 28.429514 -5.463825 -4.392813 0.000000 0.000000 0.000000 3.458840 31.315702 -95.524519 -3.366772 -66.895962 17.985226 27.173275 16.383460 -0.685337 0.000000 0.000000 0.000000 
0.311603 0.944989 2.066051 -179.167205 -14.716917 174.912521 6.493971 13.800597 -8.727812 4.100220 21.681326 20.936342 29.640438 18.146620 45.325027 0.000000 0.000000 0.000000 3.573801 3.991625 2.117566 7.618291 10.197740 -0.858730 -66.420036 34.571705 25.464723 0.000000 0.000000 0.000000 -0.543111 0.529156 8.368781 27.875701 28.667114 19.049283 -18.502313 -36.883018 10.834474 79.735881 23.722639 53.576596 0.000000 0.000000 0.000000 -24.582912 3.771747 79.738995 24.238713 -58.608401 -26.551652 27.480338 -4.263688 -3.965948 0.000000 0.000000 0.000000 3.202244 32.117129 -94.042846 3.383228 -66.307300 12.935669 28.011982 16.331665 -0.603575 0.000000 0.000000 0.000000 
0.301755 0.944211 2.042124 -179.308095 -13.455709 175.106717 5.852360 15.006237 -11.549620 -2.820018 12.649238 7.883271 42.647400 20.953572 66.282701 0.000000 0.000000 0.000000 3.753032 4.664692 3.472198 6.906054 9.469735 -0.440268 -69.145234 34.731203 23.042697 0.000000 0.000000 0.000000 -1.117031 0.743252 8.586504 29.446483 29.723890 20.556157 -19.258021 -37.671869 10.532199 74.522148 26.292882 52.056540 0.000000 0.000000 0.000000 -24.548490 3.712085 80.708909 25.149678 -58.703264 -27.305941 27.523905 -2.486514 -3.430979 0.000000 0.000000 0.000000 1.910615 33.031134 -94.215087 6.562837 -66.319951 10.411123 28.334804 16.373933 -0.751990 0.000000 0.000000 0.000000 
0.290948 0.943216 2.018425 -179.395177 -13.794991 175.018058 5.142595 15.794157 -13.971191 -3.905154 10.299620 4.443627 27.238518 12.165053 51.114559 0.000000 0.000000 0.000000 4.746259 5.382560 5.617138 4.701245 7.657152 -0.773134 -71.085938 34.303221 21.552334 0.000000 0.000000 0.000000 -1.999115 1.116168 8.829788 28.186478 28.899525 19.707568 -17.954495 -37.253373 10.241966 69.118808 27.589613 50.271127 0.000000 0.000000 0.000000 -25.043034 3.442749 78.999500 23.109500 -58.657367 -26.061600 27.291885 -1.449638 -2.904041 0.000000 0.000000 0.000000 1.527260 33.705751 -91.106824 17.661391 -65.625076 1.817549 27.906878 17.519508 -0.934529 0.000000 0.000000 0.000000 
0.278816 0.941028 1.993902 -179.349261 -12.100708 176.026944 4.251444 17.511038 -16.928371 -2.309610 10.785059 6.899105 0.451848 10.308837 21.659377 0.000000 0.000000 0.000000 4.804243 5.634471 5.709719 3.962664 7.061503 0.375306 -75.133996 35.013300 18.071981 0.000000 0.000000 0.000000 -2.737457 1.161031 7.736908 29.821799 29.854019 21.102076 -19.865816 -37.373945 10.347856 66.165275 30.104071 48.560872 0.000000 0.000000 0.000000 -24.327035 4.910956 81.339895 25.874612 -58.170550 -27.249431 26.702114 -1.083544 -2.783221 0.000000 0.000000 0.000000 0.017139 32.341593 -97.177949 8.503995 -69.351645 8.323295 29.717581 15.389500 -1.405844 0.000000 0.000000 0.000000 
0.264553 0.937623 1.967000 -179.207523 -11.295692 175.776748 3.849689 17.478102 -17.360544 0.653730 12.862017 11.627631 -43.509895 7.306223 -3.469933 0.000000 0.000000 0.000000 5.483562 6.762926 7.840624 2.642522 5.970416 0.757170 -77.878587 34.752075 16.510394 0.000000 0.000000 0.000000 -4.157161 1.688324 7.304878 29.967208 29.339411 20.588976 -19.658127 -36.733004 11.193191 67.226358 30.569795 48.900645 0.000000 0.000000 0.000000 -23.243132 5.443785 83.135632 28.616321 -57.588530 -28.051278 26.414806 0.024088 -2.464915 0.000000 0.000000 0.000000 -1.904901 33.778914 -97.782110 11.248870 -70.794604 5.315352 30.349575 15.652446 -1.824184 0.000000 0.000000 0.000000 
0.248126 0.932937 1.937507 -179.357954 -9.300923 176.680653 3.638788 18.940606 -18.565292 -3.152018 5.100849 -3.459296 -17.663860 8.961606 23.504445 0.000000 0.000000 0.000000 4.668753 7.373861 7.932757 2.650569 5.831956 2.763989 -82.679934 35.013758 13.375605 0.000000 0.000000 0.000000 -5.794962 2.229793 5.996686 33.336952 30.638388 22.955332 -22.073097 -36.771243 11.035113 65.735201 31.366303 46.903083 0.000000 0.000000 0.000000 -22.987341 5.888286 84.039833 28.220695 -56.759275 -27.192869 25.711718 -0.025926 -2.372423 0.000000 0.000000 0.000000 -1.735008 32.199815 -100.097409 6.189296 -72.045464 9.240072 30.831419 13.820403 -2.058725 0.000000 0.000000 0.000000 
